<svg width="16" height="16" viewBox="0 0 16 16" fill="none" xmlns="http://www.w3.org/2000/svg">
<g id="Group">
<path id="Vector" d="M6.5 10.8875C6.485 10.8875 6.4625 10.8875 6.4475 10.8875C6.275 10.865 6.125 10.775 6.035 10.6325L4.535 8.3825C4.3625 8.1275 4.43 7.775 4.6925 7.6025C4.955 7.43 5.3 7.4975 5.4725 7.76L6.59 9.44L10.6025 5.4275C10.82 5.21 11.18 5.21 11.3975 5.4275C11.615 5.645 11.615 6.005 11.3975 6.2225L6.8975 10.7225C6.7925 10.8275 6.65 10.8875 6.5 10.8875ZM15.3125 8C15.3125 3.965 12.035 0.6875 8 0.6875C3.965 0.6875 0.6875 3.965 0.6875 8C0.6875 12.035 3.965 15.3125 8 15.3125C12.035 15.3125 15.3125 12.035 15.3125 8ZM14.1875 8C14.1875 11.4125 11.4125 14.1875 8 14.1875C4.5875 14.1875 1.8125 11.4125 1.8125 8C1.8125 4.5875 4.5875 1.8125 8 1.8125C11.4125 1.8125 14.1875 4.5875 14.1875 8Z" fill="#749B10"/>
</g>
</svg>
