<svg width="16" height="14" viewBox="0 0 16 14" fill="none" xmlns="http://www.w3.org/2000/svg">
<g id="Group">
<path id="Union" fill-rule="evenodd" clip-rule="evenodd" d="M4.25 4.5625C3.9425 4.5625 3.6875 4.3075 3.6875 4V3.0175H2.12C1.9475 3.0175 1.8125 3.16 1.8125 3.325V5.4775H14.1875V3.325C14.1875 3.1525 14.045 3.0175 13.88 3.0175H12.3125V4C12.3125 4.3075 12.0575 4.5625 11.75 4.5625C11.4425 4.5625 11.1875 4.3075 11.1875 4V3.0175H5.39001V1.8925H11.1875V1C11.1875 0.6925 11.4425 0.4375 11.75 0.4375C12.0575 0.4375 12.3125 0.6925 12.3125 1V1.8925H13.88C14.6675 1.8925 15.3125 2.5375 15.3125 3.325V12.13C15.3125 12.9175 14.6675 13.5625 13.88 13.5625H10.61L10.6069 13.5625H5.39309L5.39 13.5625H2.12C1.325 13.5625 0.6875 12.9175 0.6875 12.13V3.325C0.6875 2.53 1.3325 1.8925 2.12 1.8925H3.6875V1C3.6875 0.6925 3.9425 0.4375 4.25 0.4375C4.5575 0.4375 4.8125 0.6925 4.8125 1V1.8925H5.39001V3.0175H4.8125V4C4.8125 4.3075 4.5575 4.5625 4.25 4.5625ZM1.8125 6.6025V12.13C1.8125 12.3025 1.955 12.4375 2.12 12.4375H13.88C14.0525 12.4375 14.1875 12.295 14.1875 12.13V8.86001L14.1875 8.85602V6.6025H1.8125Z" fill="#666666"/>
</g>
</svg>
