<svg width="16" height="14" viewBox="0 0 16 14" fill="none" xmlns="http://www.w3.org/2000/svg">
<g id="Group">
<g id="Union">
<path d="M3.68753 4C3.68753 4.3075 3.94253 4.5625 4.25003 4.5625C4.55753 4.5625 4.81253 4.3075 4.81253 4V3.0175H5.39003V1.8925H4.81253V1C4.81253 0.6925 4.55753 0.4375 4.25003 0.4375C3.94253 0.4375 3.68753 0.6925 3.68753 1V1.8925H2.12003C1.33253 1.8925 0.687531 2.53 0.687531 3.325V12.13C0.687531 12.9175 1.33253 13.5625 2.12003 13.5625H5.39003C5.69753 13.5625 5.95253 13.3075 5.95253 13C5.95253 12.6925 5.69753 12.4375 5.39003 12.4375H2.12003C1.95503 12.4375 1.81253 12.3025 1.81253 12.13V6.6025H14.1875V8.85602L14.1875 8.86001V12.13C14.1875 12.295 14.0525 12.4375 13.88 12.4375H10.61C10.3025 12.4375 10.0475 12.6925 10.0475 13C10.0475 13.3075 10.3025 13.5625 10.61 13.5625H13.88C14.6675 13.5625 15.3125 12.9175 15.3125 12.13V3.325C15.3125 2.5375 14.675 1.8925 13.88 1.8925H12.3125V1C12.3125 0.6925 12.0575 0.4375 11.75 0.4375C11.4425 0.4375 11.1875 0.6925 11.1875 1V1.8925H5.39003V3.0175H11.1875V4C11.1875 4.3075 11.4425 4.5625 11.75 4.5625C12.0575 4.5625 12.3125 4.3075 12.3125 4V3.0175H13.88C14.045 3.0175 14.1875 3.1525 14.1875 3.325V5.4775H1.81253V3.325C1.81253 3.16 1.94753 3.0175 2.12003 3.0175H3.68753V4Z" fill="#E02D48"/>
<path d="M7.98502 11.1775C7.67752 11.1775 7.42252 10.9225 7.42252 10.615V8.01999C7.42252 7.71249 7.67752 7.45749 7.98502 7.45749C8.29252 7.45749 8.54752 7.71249 8.54752 8.01999V10.615C8.54752 10.9225 8.30002 11.1775 7.98502 11.1775Z" fill="#E02D48"/>
<path d="M8.73502 13C8.73502 13.4142 8.39923 13.75 7.98502 13.75C7.5708 13.75 7.23502 13.4142 7.23502 13C7.23502 12.5858 7.5708 12.25 7.98502 12.25C8.39923 12.25 8.73502 12.5858 8.73502 13Z" fill="#E02D48"/>
</g>
</g>
</svg>
