<svg width="20" height="21" viewBox="0 0 20 21" fill="none" xmlns="http://www.w3.org/2000/svg">
<rect y="0.5" width="20" height="20" rx="10" fill="#EFA91C" fill-opacity="0.1"/>
<path fill-rule="evenodd" clip-rule="evenodd" d="M5.35712 10.5C5.35712 13.0619 7.43807 15.1428 9.99997 15.1428C12.5619 15.1428 14.6428 13.0619 14.6428 10.5C14.6428 7.93806 12.5619 5.85711 9.99997 5.85711C7.43807 5.85711 5.35712 7.93806 5.35712 10.5ZM6.0714 10.5C6.0714 8.3333 7.83331 6.57139 9.99997 6.57139C12.1666 6.57139 13.9285 8.3333 13.9285 10.5C13.9285 12.6666 12.1666 14.4285 9.99997 14.4285C7.83331 14.4285 6.0714 12.6666 6.0714 10.5ZM9.99997 9.66663C10.1952 9.66663 10.3571 9.82854 10.3571 10.0238V12.4047C10.3571 12.6 10.1952 12.7619 9.99997 12.7619C9.80474 12.7619 9.64283 12.6 9.64283 12.4047V10.0238C9.64283 9.82854 9.80474 9.66663 9.99997 9.66663ZM9.99997 8.11901C10.263 8.11901 10.4762 8.33221 10.4762 8.5952C10.4762 8.85819 10.263 9.07139 9.99997 9.07139C9.73698 9.07139 9.52378 8.85819 9.52378 8.5952C9.52378 8.33221 9.73698 8.11901 9.99997 8.11901Z" fill="#C38000"/>
</svg>
